<?xml version="1.0" encoding="UTF-8"?>
<svg width="126px" height="126px" viewBox="0 0 126 126" version="1.1" xmlns="http://www.w3.org/2000/svg" xmlns:xlink="http://www.w3.org/1999/xlink">
    <!-- Generator: Sketch 42 (36781) - http://www.bohemiancoding.com/sketch -->
    <title>Skype</title>
    <desc>Created with Sketch.</desc>
    <defs></defs>
    <g id="Page-1" stroke="none" stroke-width="1" fill="none" fill-rule="evenodd">
        <g id="Platforms" transform="translate(-629.000000, -10.000000)" fill-rule="nonzero" fill="#FFFFFF">
            <path d="M629,47.9080352 L629,42.2464023 C629.077889,41.8540059 629.189492,41.4654238 629.228498,41.0692129 C630.587428,27.3270918 640.522355,15.2969219 653.795299,11.4533066 C656.061207,10.7970977 658.424076,10.4759453 660.742156,10 L666.401697,10 C666.511086,10.052418 666.617029,10.141627 666.730479,10.1524551 C672.215416,10.6738047 677.264521,12.4472793 681.928367,15.3721035 C682.261086,15.580791 682.787111,15.607 683.197965,15.546707 C694.054514,13.9522656 704.563455,15.2502871 714.580947,19.6926484 C738.312383,30.2167246 751.974646,54.2079121 749.153305,80.0607988 C749.077139,80.7604434 749.288902,81.6147578 749.656813,82.2203945 C754.058814,89.4652715 755.789469,97.2951133 754.667896,105.680266 C751.349445,130.487623 724.679035,143.669512 703.024262,131.272293 C702.510172,130.978088 701.770537,130.845197 701.186187,130.941789 C694.73201,132.008852 688.260975,132.11701 681.854047,130.842244 C659.910113,126.476172 645.042113,113.636969 637.178064,92.7749863 C633.853215,83.954002 633.171658,74.7450508 634.348355,65.390166 C634.445439,64.6181699 634.218049,63.6815371 633.833035,62.9941973 C632.159229,60.0076035 630.82257,56.8927949 630.038885,53.5640078 C629.599977,51.7005859 629.340348,49.7948359 629,47.9080352 Z M692.826752,118.558352 C693.911779,118.506672 695.717369,118.469635 697.514592,118.3269 C706.976281,117.576068 714.946643,113.740574 721.225355,106.592781 C724.494711,102.871105 726.610871,98.5533906 726.914305,93.5288945 C727.294766,87.2292637 724.753725,82.0262266 720.536539,77.5635625 C716.659578,73.4606875 711.767234,70.9138633 706.448902,69.3740547 C699.731035,67.4290527 692.902672,65.8641426 686.114053,64.1676953 C683.484664,63.510502 680.862166,62.8657363 678.599703,61.2700645 C675.121783,58.8174941 674.397406,55.1516816 676.780578,51.6202363 C677.414146,50.6815117 678.190326,49.7747793 679.079586,49.083502 C684.745279,44.6790391 690.95484,44.1340645 697.498719,46.7752656 C701.320801,48.3181504 704.390574,51.0020488 707.475113,53.6534629 C709.212904,55.1471289 710.994746,56.6030195 712.859398,57.9316797 C714.607525,59.1769141 716.550313,59.192541 718.445973,58.1861406 C721.142422,56.7557207 722.696381,54.4896895 723.000922,51.4594141 C723.415713,47.3293457 721.434904,44.1834063 718.598674,41.4891719 C715.604697,38.6449434 712.222631,36.31825 708.432172,34.6737285 C698.425754,30.3325117 688.02817,29.7748633 677.626279,32.5520312 C668.215039,35.0646484 661.927344,41.2735938 659.174047,50.766168 C656.308408,60.6460937 658.979387,68.2629414 667.346082,74.2041367 C672.363564,77.7674512 677.993697,79.9704824 683.936861,81.3706328 C687.919273,82.308373 691.98142,82.914502 695.951773,83.8959238 C699.582887,84.7937969 703.094768,86.1095371 705.890885,88.7588594 C708.291037,91.0330117 708.679865,93.6681836 707.067951,96.5624922 C705.270852,99.7893965 702.579324,101.959205 699.046156,103.03402 C694.774584,104.333025 690.52799,103.846129 686.313143,102.721111 C682.023975,101.57616 678.234254,99.6572441 675.427063,96.0253926 C674.25824,94.5130234 672.833973,93.1609844 671.362086,91.9323613 C670.248635,91.0027422 668.953566,90.180666 667.603988,89.6635 C662.318018,87.6375332 657.165184,91.1866973 657.017281,96.8379941 C656.923889,100.411645 658.370305,103.405375 660.658854,105.982592 C664.409568,110.206299 668.85316,113.514906 674.137285,115.62516 C679.91249,117.931551 685.969596,118.478371 692.826752,118.558352 Z" id="Skype"></path>
        </g>
    </g>
</svg>