<?xml version="1.0" encoding="UTF-8"?>
<svg width="126px" height="103px" viewBox="0 0 126 103" version="1.1" xmlns="http://www.w3.org/2000/svg" xmlns:xlink="http://www.w3.org/1999/xlink">
    <!-- Generator: Sketch 42 (36781) - http://www.bohemiancoding.com/sketch -->
    <title>path3611</title>
    <desc>Created with Sketch.</desc>
    <defs></defs>
    <g id="Page-1" stroke="none" stroke-width="1" fill="none" fill-rule="evenodd">
        <g id="Platforms" transform="translate(-318.000000, -27.000000)" fill-rule="nonzero" fill="#FFFFFF">
            <g id="Twitter_Bird" transform="translate(318.000000, 27.000000)">
                <g id="svg3626" transform="translate(0.000000, -0.000000)">
                    <g id="layer1" transform="translate(0.344627, 0.059737)">
                        <path d="M112.49889,29.0171868 C112.49889,27.9057492 112.476252,26.7993264 112.426398,25.6979058 C117.440354,22.0732386 121.798471,17.54991 125.235398,12.400773 C120.634471,14.4459084 115.683095,15.8226852 110.4889,16.4434872 C115.790732,13.2643854 119.860973,8.2354104 121.780949,2.2401834 C116.819556,5.1814728 111.324977,7.3192308 105.47494,8.4732144 C100.788904,3.4817832 94.1178084,0.3602634 86.7307938,0.3602634 C72.550023,0.3602634 61.0502046,11.8600818 61.0502046,26.035842 C61.0502046,28.0509348 61.2754926,30.0109656 61.7160642,31.8908814 C40.373571,30.8170002 21.4491816,20.598837 8.785371,5.0613192 C6.5800266,8.8562082 5.3083926,13.2643854 5.3083926,17.9679444 C5.3083926,26.8769256 9.8417298,34.7420598 16.7356098,39.3429876 C12.5226864,39.2128212 8.5650852,38.056326 5.105625,36.1313484 C5.101845,36.2390868 5.101845,36.3441246 5.101845,36.4592718 C5.101845,48.8952912 13.9532526,59.2786698 25.703391,61.6316988 C23.5456116,62.2199592 21.275184,62.5353624 18.9321678,62.5353624 C17.280039,62.5353624 15.6704646,62.3727552 14.105952,62.0722704 C17.3751606,72.2754144 26.8548714,79.699977 38.094357,79.907751 C29.3055294,86.7966204 18.2337666,90.8994114 6.2007666,90.8994114 C4.130595,90.8994114 2.0854638,90.7816602 0.0753732,90.5439486 C11.4400188,97.8283404 24.9349044,102.078812 39.4385838,102.078812 C86.6706162,102.078812 112.49889,62.9483988 112.49889,29.0171868 Z" id="path3611"></path>
                    </g>
                </g>
            </g>
        </g>
    </g>
</svg>